<?xml version="1.0" encoding="UTF-8" standalone="no"?>
<!DOCTYPE svg PUBLIC "-//W3C//DTD SVG 1.1//EN" "http://www.w3.org/Graphics/SVG/1.1/DTD/svg11.dtd">
<svg xmlns="http://www.w3.org/2000/svg" xmlns:xlink="http://www.w3.org/1999/xlink" version="1.1" width="1080" height="1080" viewBox="0 0 1080 1080" xml:space="preserve">
<desc>Created with Fabric.js 5.2.4</desc>
<defs></defs>
<rect x="0" y="0" width="100%" height="100%" fill="transparent"></rect>
<g transform="matrix(1 0 0 1 540 540)" id="1b91c82a-61bf-47cc-8ca3-dbe03bddc4d8">
    <rect style="stroke: none; stroke-width: 1; stroke-dasharray: none; stroke-linecap: butt; stroke-dashoffset: 0; stroke-linejoin: miter; stroke-miterlimit: 4; fill: rgb(255,255,255); fill-rule: nonzero; opacity: 1; visibility: hidden;" vector-effect="non-scaling-stroke" x="-540" y="-540" rx="0" ry="0" width="1080" height="1080"/>
</g>
<g transform="matrix(1 0 0 1 540 540)" id="b2c518ac-5a5b-42f3-9ffb-1a7d5c22f585"></g>
<g transform="matrix(1.13 0 0 1.13 615.81 515.57)" style="" id="67032c90-0004-436e-8f81-8df9a4e71ab2">
    <text xml:space="preserve" font-family="Alegreya" font-size="91" font-style="normal" font-weight="600" style="stroke: none; stroke-width: 1; stroke-dasharray: none; stroke-linecap: butt; stroke-dashoffset: 0; stroke-linejoin: miter; stroke-miterlimit: 4; fill: rgb(0,0,0); fill-rule: nonzero; opacity: 1; white-space: pre;"><tspan x="-274.41" y="28.59">find ukrainian</tspan></text>
</g>
<g transform="matrix(0.13 0 0 -0.13 176.07 540)">
    <path style="stroke: none; stroke-width: 1; stroke-dasharray: none; stroke-linecap: butt; stroke-dashoffset: 0; stroke-linejoin: miter; stroke-miterlimit: 4; fill: rgb(0,0,0); fill-rule: nonzero; opacity: 1;" vector-effect="non-scaling-stroke" transform=" translate(-829.46, -923.13)" d="M 161 1703 C 126 1696 54 1619 47 1581 C 38 1539 38 638 46 587 C 54 540 114 478 168 462 C 190 455 236 450 272 450 C 308 450 341 445 348 438 C 356 430 360 385 360 302 C 360 172 368 140 401 140 C 412 140 512 209 623 292 L 825 445 L 1155 450 C 1375 454 1494 459 1511 467 C 1559 488 1609 548 1615 594 C 1618 616 1620 851 1618 1115 C 1615 1588 1615 1595 1593 1630 C 1581 1649 1556 1674 1538 1685 C 1506 1704 1486 1705 845 1706 C 482 1707 174 1705 161 1703 z M 1470 1616 C 1489 1609 1511 1592 1517 1579 C 1527 1561 1530 1436 1530 1077 L 1530 598 L 1500 570 C 1484 555 1456 540 1439 536 C 1422 533 1269 530 1099 530 L 790 530 L 629 409 C 540 343 464 292 459 297 C 455 301 450 353 448 412 C 446 470 442 521 438 525 C 434 529 387 532 333 531 C 249 530 228 533 190 552 C 156 570 144 583 137 608 C 133 626 131 850 132 1105 C 135 1621 131 1591 203 1617 C 251 1634 1421 1633 1470 1616 z" stroke-linecap="round"/>
</g>
<g transform="matrix(1 0 0 1 173.24 518.45)" style="" id="5b1a5389-3512-4590-85f0-f800695d648f">
    <text xml:space="preserve" font-family="Alegreya" font-size="80" font-style="normal" font-weight="700" style="stroke: none; stroke-width: 1; stroke-dasharray: none; stroke-linecap: butt; stroke-dashoffset: 0; stroke-linejoin: miter; stroke-miterlimit: 4; fill: rgb(0,0,0); fill-rule: nonzero; opacity: 1; white-space: pre;"><tspan x="-58.96" y="25.13">ukr</tspan></text>
</g>
</svg>
