<svg xmlns="http://www.w3.org/2000/svg" xmlns:xlink="http://www.w3.org/1999/xlink" version="1.1" viewBox="0 0 90 90">
  <g>
    <g fill="rgb(25, 25, 25)" fill-rule="nonzero" transform="translate(0 0) scale(.9)">
      <path d="M84 5H16C9.9 5 5 9.6 5 15.3V67c0 5.7 4.9 10.3 11 10.3h7.2v15.3c0 .9.6 1.8 1.5 2.2.4.2.7.2 1.1.2.6 0 1.2-.2 1.7-.5l22.7-17.2H84c6.1 0 11-4.6 11-10.3V15.3C95 9.6 90.1 5 84 5zm5.9 61.9c0 3-2.6 5.4-5.8 5.4H49.2c-.6 0-1.2.2-1.7.5L28.4 87.3V74.7c0-1.3-1.2-2.4-2.6-2.4H16c-3.2 0-5.8-2.4-5.8-5.4V15.5c0-3 2.6-5.4 5.8-5.4h68.2c3.2 0 5.8 2.4 5.8 5.4v51.4z"></path>
      <path d="M34 42.4c0 1.4-.2 2.3-.5 3-.5 1.1-1.6 1.6-3.3 1.6-1.7 0-2.8-.6-3.3-1.7-.3-.6-.5-1.6-.5-3v-12h-4.2v12.1c0 2.1.3 3.7 1 4.9 1.2 2.1 3.5 3.2 6.9 3.2s5.7-1.1 6.9-3.2c.7-1.2 1-2.8 1-4.9V30.3h-4v12.1zM59.2 30.3h-5.3l-7.7 8.1v-8.1h-4V50h4v-6.6l2-2 6.1 8.6h5.3l-8.5-11.6zM77.3 48.4c-.1-.3-.1-.9-.1-1.8v-1.3c0-1.4-.2-2.4-.6-3.1s-1-1.2-1.9-1.6c1.1-.4 1.9-1 2.3-1.9s.7-1.8.7-2.8c0-.8-.1-1.5-.4-2.1-.2-.6-.6-1.2-1-1.7-.5-.6-1.1-1.1-1.8-1.4-.7-.3-1.8-.5-3.1-.5H62V50h4v-7.7h4c1.1 0 1.9.2 2.3.6.4.4.6 1.3.7 2.5v1.8c0 .6.1 1.1.2 1.7.1.3.1.6.3 1.1h4.6v-.5c-.4-.2-.7-.6-.8-1.1zm-4.9-9.7c-.4.2-1.1.3-2 .3H66v-5.3h4.6c.8 0 1.5.1 1.9.3.8.4 1.1 1.2 1.1 2.4s-.4 1.9-1.2 2.3z"></path>
    </g>
  </g>
</svg>
