<?xml version="1.0" standalone="no"?>
<!DOCTYPE svg PUBLIC "-//W3C//DTD SVG 20010904//EN"
 "http://www.w3.org/TR/2001/REC-SVG-20010904/DTD/svg10.dtd">
<svg version="1.0" xmlns="http://www.w3.org/2000/svg"
 width="900.000000pt" height="198.000000pt" viewBox="0 0 900.000000 198.000000"
 preserveAspectRatio="xMidYMid meet">
<metadata>
Created by potrace 1.10, written by Peter Selinger 2001-2011
</metadata>
<g transform="translate(0.000000,198.000000) scale(0.100000,-0.100000)"
fill="#000000" stroke="none">
<path d="M161 1703 c-35 -7 -107 -84 -114 -122 -9 -42 -9 -943 -1 -994 8 -47
68 -109 122 -125 22 -7 68 -12 104 -12 36 0 69 -5 76 -12 8 -8 12 -53 12 -136
0 -130 8 -162 41 -162 11 0 111 69 222 152 l202 153 330 5 c220 4 339 9 356
17 48 21 98 81 104 127 3 22 5 257 3 521 -3 473 -3 480 -25 515 -12 19 -37 44
-55 55 -32 19 -52 20 -693 21 -363 1 -671 -1 -684 -3z m1309 -87 c19 -7 41
-24 47 -37 10 -18 13 -143 13 -502 l0 -479 -30 -28 c-16 -15 -44 -30 -61 -34
-17 -3 -170 -6 -340 -6 l-309 0 -161 -121 c-89 -66 -165 -117 -170 -112 -4 4
-9 56 -11 115 -2 58 -6 109 -10 113 -4 4 -51 7 -105 6 -84 -1 -105 2 -143 21
-34 18 -46 31 -53 56 -4 18 -6 242 -5 497 3 516 -1 486 71 512 48 17 1218 16
1267 -1z"/>
<path d="M349 1253 c-7 -18 -9 -71 -6 -148 l5 -120 36 -32 c31 -29 42 -33 92
-33 64 0 103 19 128 60 24 41 24 288 0 297 -9 3 -24 2 -33 -4 -13 -8 -17 -32
-19 -127 -3 -138 -15 -166 -67 -166 -58 0 -69 25 -75 169 -5 121 -6 126 -27
129 -17 3 -26 -4 -34 -25z"/>
<path d="M706 1264 c-23 -23 -23 -305 0 -328 35 -35 64 -4 64 69 0 78 26 85
68 17 47 -74 67 -94 103 -95 28 -2 34 2 34 19 0 11 -10 34 -22 50 -68 88 -93
124 -93 134 0 7 27 39 60 72 33 33 57 64 54 69 -3 5 -19 9 -35 9 -24 0 -43
-13 -93 -65 -35 -35 -66 -62 -70 -58 -3 3 -6 26 -6 49 0 40 -18 74 -40 74 -5
0 -16 -7 -24 -16z"/>
<path d="M1047 1273 c-4 -3 -7 -79 -7 -168 0 -136 3 -165 16 -176 28 -23 48 1
54 66 6 65 19 77 74 65 34 -6 56 -39 56 -81 0 -34 22 -62 46 -57 16 3 19 13
22 71 2 53 0 68 -13 73 -19 8 -19 23 1 45 18 20 21 103 4 124 -25 30 -78 45
-162 45 -47 0 -88 -3 -91 -7z m175 -68 c44 -18 31 -72 -19 -81 -53 -10 -87 5
-91 41 -6 48 46 67 110 40z"/>
<path d="M2050 1459 c-63 -44 -80 -82 -80 -178 0 -52 -4 -82 -13 -89 -7 -6
-40 -12 -72 -14 -59 -3 -60 -3 -60 -33 0 -30 0 -30 62 -33 34 -2 66 -9 72 -16
7 -8 12 -98 13 -242 l3 -229 25 0 25 0 5 240 5 240 87 3 c77 2 88 5 93 23 12
36 -11 48 -98 51 l-82 3 -3 67 c-5 111 43 177 129 178 39 0 48 3 52 22 9 33 1
38 -61 38 -48 0 -65 -5 -102 -31z"/>
<path d="M3687 1483 c-4 -3 -7 -84 -7 -179 0 -95 -4 -175 -9 -178 -4 -3 -17 1
-27 9 -137 106 -336 53 -413 -110 -53 -112 -34 -236 51 -323 57 -59 114 -82
205 -82 72 0 140 22 158 50 11 18 33 11 37 -11 4 -31 32 -46 52 -30 14 12 16
62 16 431 0 372 -2 419 -16 424 -20 8 -39 8 -47 -1z m-139 -371 c29 -11 70
-34 92 -52 l40 -34 0 -117 0 -118 -32 -34 c-96 -101 -247 -101 -325 1 -98 126
-49 307 95 355 61 20 68 20 130 -1z"/>
<path d="M4912 1478 c-9 -9 -12 -110 -12 -424 0 -438 0 -441 47 -432 16 3 19
19 23 138 3 88 9 135 16 135 6 0 67 -53 135 -117 168 -158 168 -158 200 -158
48 0 45 21 -8 69 -129 117 -253 236 -253 243 0 4 24 26 53 49 28 22 81 64 116
92 116 93 124 107 64 107 -33 0 -85 -29 -118 -65 -5 -7 -30 -27 -55 -45 -25
-19 -65 -51 -89 -72 -24 -21 -48 -38 -52 -38 -5 0 -10 118 -11 263 -3 254 -4
262 -23 265 -11 1 -26 -3 -33 -10z"/>
<path d="M2317 1412 c-37 -40 -9 -102 46 -102 27 0 57 32 57 60 0 23 -42 60
-67 60 -11 0 -27 -8 -36 -18z"/>
<path d="M6552 1407 c-12 -13 -22 -30 -22 -38 1 -24 37 -59 63 -59 50 0 76 69
39 103 -26 23 -55 21 -80 -6z"/>
<path d="M7477 1412 c-22 -24 -21 -65 1 -85 40 -36 102 -9 102 45 0 51 -69 78
-103 40z"/>
<path d="M2737 1171 c-21 -10 -43 -23 -50 -30 -18 -18 -41 -13 -52 11 -12 27
-44 36 -56 16 -5 -7 -9 -128 -9 -269 0 -274 3 -289 50 -274 19 6 20 14 20 186
0 195 3 211 57 261 15 14 52 34 82 44 52 17 57 17 105 0 108 -38 126 -80 126
-291 0 -171 8 -208 43 -203 22 3 22 5 25 188 3 210 -5 248 -66 307 -73 71
-189 94 -275 54z"/>
<path d="M5613 1160 c-29 -17 -55 -30 -58 -30 -3 0 -10 12 -15 26 -7 19 -16
25 -33 22 l-22 -3 0 -275 0 -275 25 0 25 0 5 192 5 191 31 39 c34 42 80 69
136 79 37 6 57 32 43 54 -13 21 -89 10 -142 -20z"/>
<path d="M6006 1171 c-58 -28 -121 -85 -147 -133 -19 -36 -23 -58 -23 -138 0
-94 1 -97 37 -152 63 -94 126 -128 238 -128 80 0 113 10 161 49 23 18 46 8 50
-21 2 -17 9 -23 28 -23 l25 0 0 275 0 275 -23 3 c-17 3 -25 -4 -35 -27 -12
-28 -14 -29 -37 -16 -69 39 -100 48 -165 51 -53 3 -80 -1 -109 -15z m169 -58
c27 -10 69 -36 92 -59 l43 -41 0 -104 c0 -109 -6 -130 -55 -172 -144 -125
-355 -29 -355 162 0 99 51 176 142 212 55 23 72 23 133 2z"/>
<path d="M6970 1171 c-24 -10 -46 -23 -48 -30 -5 -16 -42 -14 -42 3 0 21 -27
38 -50 31 -19 -6 -20 -13 -20 -275 0 -253 1 -269 19 -275 47 -15 50 -6 53 204
l3 197 38 36 c48 43 125 72 171 64 48 -9 116 -58 135 -97 12 -26 17 -79 21
-219 5 -170 7 -185 24 -188 10 -2 22 0 28 6 5 5 9 92 8 208 -1 215 -3 224 -67
288 -63 63 -181 84 -273 47z"/>
<path d="M7855 1165 c-60 -31 -108 -76 -137 -129 -18 -34 -22 -58 -22 -136 0
-90 2 -98 33 -147 32 -52 65 -81 128 -115 49 -27 179 -25 233 3 22 12 43 25
46 30 11 19 32 8 43 -22 8 -24 15 -30 33 -27 l23 3 3 255 c1 140 0 265 -3 278
-8 33 -43 29 -58 -7 -12 -28 -14 -29 -37 -16 -69 38 -101 48 -165 52 -59 2
-78 -1 -120 -22z m210 -66 c25 -12 58 -37 75 -55 29 -34 30 -37 30 -139 l0
-105 -35 -39 c-113 -125 -276 -104 -358 46 -24 44 -23 142 3 192 25 51 69 91
122 113 51 21 99 17 163 -13z"/>
<path d="M8557 1156 l-65 -35 -11 30 c-8 24 -16 30 -33 27 l-23 -3 0 -275 c0
-264 1 -275 19 -278 40 -8 46 21 46 215 l0 183 39 38 c24 23 62 46 95 57 47
16 60 17 96 6 23 -7 58 -27 79 -46 50 -45 61 -97 61 -290 0 -146 1 -154 20
-160 45 -14 50 6 50 183 0 128 -4 177 -17 219 -31 99 -122 163 -233 163 -47 0
-71 -7 -123 -34z"/>
<path d="M2335 1168 c-3 -7 -4 -132 -3 -278 l3 -265 25 0 25 0 0 275 0 275
-23 3 c-12 2 -24 -3 -27 -10z"/>
<path d="M4226 1164 c-3 -9 -6 -89 -6 -179 0 -142 3 -171 21 -217 41 -105 107
-148 225 -148 68 0 81 3 121 30 24 17 46 30 49 30 2 0 9 -11 14 -25 12 -31 35
-41 55 -25 13 10 15 54 15 270 0 273 -2 287 -47 278 -16 -3 -18 -21 -23 -200
l-5 -197 -29 -30 c-73 -76 -172 -93 -242 -43 -21 16 -44 35 -50 43 -23 29 -34
112 -34 253 0 79 -3 151 -6 160 -3 9 -16 16 -29 16 -13 0 -26 -7 -29 -16z"/>
<path d="M6565 1167 c-3 -7 -4 -131 -3 -277 3 -253 4 -265 22 -268 42 -8 46
18 46 276 0 148 -4 251 -10 263 -12 21 -48 26 -55 6z"/>
<path d="M7495 1168 c-3 -7 -4 -132 -3 -278 l3 -265 25 0 25 0 0 275 0 275
-23 3 c-12 2 -24 -3 -27 -10z"/>
</g>
</svg>
